<?xml version="1.0" encoding="utf-8"?>
<!-- Generator: Adobe Illustrator 24.1.0, SVG Export Plug-In . SVG Version: 6.00 Build 0)  -->
<svg version="1.1" id="圖層_1" xmlns="http://www.w3.org/2000/svg" xmlns:xlink="http://www.w3.org/1999/xlink" x="0px" y="0px"
	 viewBox="0 0 195.07 89.73" style="enable-background:new 0 0 195.07 89.73;" xml:space="preserve">
<g>
	<path d="M33.6,89.73c-3.32-2.26-3.85-4.14-0.69-6.39c2.94-2.1,5.74-4.39,8.61-6.61c-0.44-0.52-0.62-0.92-0.82-0.94
		c-7.91-0.74-7.91-0.73-7.91-8.79c0-7.5,0.06-15-0.03-22.5c-0.03-2.42,0.6-3.7,3.34-3.68c12.66,0.08,25.31,0.04,38.88,0.04
		c0,11.46,0,22.66,0,34.36c-2.09,0.19-4.79,0.44-8.6,0.78c3.76,2.92,6.89,5.05,9.59,7.62c0.96,0.91,0.89,2.91,1.3,4.41
		c-1.52-0.06-3.44,0.46-4.51-0.27c-4.52-3.11-8.86-6.5-13.14-9.95c-3.49-2.82-6.67-3.01-10.28-0.08
		C44.2,81.9,38.82,85.78,33.6,89.73z M67.98,63.38c-5.27-0.34-10.63-0.69-16.24-1.05c0.35-2.46,0.6-4.2,0.95-6.59
		c-4.35-0.27-8.34-0.53-12.69-0.8c0,4.64,0.19,8.46-0.05,12.26c-0.23,3.67,1.49,4.59,4.77,4.51c5.66-0.15,11.32-0.04,16.99-0.04
		C69.28,71.66,69.54,71.33,67.98,63.38z M67.88,58.54c0-3.43-0.12-6.71,0.04-9.98c0.15-2.97-1.3-3.65-3.94-3.6
		c-6.48,0.11-12.96,0.2-19.44-0.02c-4.31-0.15-5.28,1.67-4.04,5.67c5.69,0.46,11.4,0.93,17.13,1.4c-0.3,2.33-0.54,4.22-0.84,6.54
		C60.87,58.54,64.28,58.54,67.88,58.54z"/>
	<path d="M151.01,40.86c13.31,0,26.09-0.07,38.87,0.12c1.05,0.02,2.95,1.76,2.97,2.73c0.22,10.29,0.14,20.58,0.14,31.47
		c-2.07,0.19-4.81,0.43-8.76,0.79c3.79,2.95,7.01,5.14,9.79,7.78c0.92,0.87,0.73,2.91,1.05,4.42c-1.4-0.03-3.17,0.48-4.12-0.18
		c-4.77-3.33-9.37-6.89-13.93-10.51c-3.23-2.57-6.21-2.54-9.44,0c-4.56,3.6-9.17,7.17-13.94,10.49c-0.95,0.66-2.72,0.14-4.11,0.17
		c0.32-1.49,0.14-3.51,1.05-4.38c2.71-2.59,5.86-4.72,9.66-7.68c-3.68-0.37-6.35-0.64-9.23-0.94
		C151.01,63.77,151.01,52.7,151.01,40.86z M157.98,54.87c0,4.75,0.15,8.72-0.05,12.67c-0.15,3.04,1.06,4.2,4.02,4.15
		c5.98-0.09,11.96-0.02,17.94-0.02c7.3-0.01,7.96-0.94,5.77-8.32c-5.15-0.31-10.38-0.63-15.78-0.96c0.16-2.5,0.29-4.38,0.44-6.69
		C166.2,55.43,162.44,55.17,157.98,54.87z M185.86,58.49c0-3.48-0.11-6.63,0.03-9.76c0.13-2.8-1.03-3.82-3.79-3.77
		c-6.46,0.11-12.93,0.21-19.39-0.03c-4.47-0.16-5.59,1.59-4.19,5.72c5.65,0.44,11.22,0.88,16.85,1.32
		c-0.16,2.28-0.29,4.19-0.45,6.52C178.68,58.49,182.06,58.49,185.86,58.49z"/>
	<path d="M168.08,10.99c0.23-3.75,0.42-6.69,0.68-10.99c2.7,0.98,5.96,1.18,6.75,2.68c1.08,2.05,0.27,5.09,0.27,8.16
		c6.58,0,12.52,0,18.29,0c1.76,3.46,0.23,4.23-2.48,4.22c-4.98-0.02-9.96,0-15.33,0c0,2.2,0,4.09,0,6.75
		c4.56,0,9.18-0.14,13.78,0.09c1.28,0.07,2.5,1.27,3.75,1.95c-1.31,0.65-2.6,1.78-3.94,1.86c-4.46,0.24-8.93,0.09-13.69,0.09
		c0,2.39,0,4.28,0,6.77c5.16,0,10.14-0.14,15.09,0.1c1.23,0.06,2.39,1.37,3.59,2.1c-1.18,0.59-2.36,1.68-3.54,1.69
		c-12.67,0.12-25.34,0.12-38,0c-1.18-0.01-2.34-1.13-3.51-1.73c1.21-0.72,2.37-1.95,3.64-2.06c3.31-0.3,6.68-0.35,9.99-0.05
		c5.06,0.47,5.61-2.05,4.42-6.82c-4,0-8.1,0.17-12.17-0.1c-1.3-0.08-2.52-1.32-3.77-2.03c1.3-0.62,2.56-1.62,3.91-1.78
		c2.47-0.29,4.99-0.07,7.49-0.09c5.42-0.04,5.7-0.46,4.29-6.74c-4.67,0-9.47,0.17-14.24-0.11c-1.34-0.08-2.61-1.46-3.91-2.24
		c0.25-0.57,0.5-1.15,0.75-1.72C155.97,10.99,161.76,10.99,168.08,10.99z"/>
	<path d="M49.66,15.06c-3.99,0-8.13,0.23-12.22-0.1c-1.91-0.15-3.74-1.39-5.61-2.14c1.78-0.63,3.52-1.69,5.33-1.81
		c4.13-0.27,8.29-0.09,12.99-0.09c0.22-3.36,0.42-6.43,0.64-9.86c2.25,0,4.31,0,6.78,0c0.18,3.1,0.35,6.17,0.56,9.86
		c5.36,0,10.47-0.11,15.57,0.09c1.11,0.04,2.18,1.21,3.27,1.86c-1.05,0.73-2.07,2.03-3.15,2.08c-5.12,0.22-10.25,0.1-15.67,0.1
		c0,2.23,0,3.98,0,6.46c5.67,0,11.38,0,17.09,0c0.25,0.66,0.5,1.32,0.75,1.98c-1.25,0.76-2.46,2.11-3.75,2.18
		c-4.61,0.27-9.24,0.1-14.12,0.1c0,2.36,0,4.12,0,6.77c4.96,0,9.88-0.13,14.79,0.08c1.36,0.06,2.67,1.13,4,1.74
		c-1.39,0.72-2.78,2.05-4.18,2.07c-12.16,0.17-24.32,0.16-36.47,0.01c-1.48-0.02-2.95-1.18-4.42-1.81c1.4-0.7,2.76-1.86,4.21-1.99
		c3.3-0.3,6.65-0.15,9.98-0.08c2.54,0.05,4.57-0.05,4.54-3.57c-0.03-3.35-2.04-3.23-4.31-3.21c-3.16,0.03-6.34,0.16-9.48-0.11
		c-0.98-0.08-1.86-1.31-2.79-2.01c0.98-0.62,1.91-1.68,2.94-1.77c2.81-0.25,5.66-0.08,8.49-0.1C50.82,21.75,51.14,21.28,49.66,15.06
		z"/>
	<path d="M24.26,43.1c0,5.82-0.09,11.64,0.04,17.46c0.06,2.83-0.67,4.34-3.89,4.23c-5.48-0.19-10.98-0.18-16.46,0
		c-3.18,0.1-3.95-1.33-3.93-4.2C0.11,49.11,0.13,37.63,0,26.16c-0.04-3.12,0.79-4.56,4.19-4.42c5.31,0.22,10.65,0.24,15.96-0.01
		c3.44-0.16,4.26,1.29,4.16,4.4C24.14,31.79,24.26,37.45,24.26,43.1z M17.16,43.28c0-4.65-0.12-9.31,0.04-13.95
		c0.12-3.47-1.95-3.72-4.52-3.54c-2.48,0.17-5.66-0.91-5.64,3.47c0.05,9.3,0.07,18.6-0.01,27.91c-0.03,3.85,2.51,3.62,5.09,3.61
		c2.53-0.01,5.18,0.37,5.08-3.54C17.08,52.59,17.16,47.93,17.16,43.28z"/>
	<path d="M142.13,21.82c0,13.85,0.07,26.96-0.14,40.07c-0.01,0.96-1.94,2.66-3.03,2.71c-5.98,0.27-11.99,0.29-17.96-0.03
		c-1.08-0.06-2.91-2.13-2.93-3.3c-0.22-11.98-0.22-23.96,0-35.94c0.02-1.18,1.81-3.3,2.85-3.35
		C127.7,21.67,134.51,21.82,142.13,21.82z M125.01,43.32c0,4.49,0.16,8.98-0.05,13.46c-0.17,3.62,1.8,4.16,4.67,4
		c2.56-0.14,5.52,0.71,5.45-3.65c-0.14-9.31-0.14-18.61-0.01-27.92c0.06-4.08-2.69-3.38-5.1-3.41c-2.51-0.04-5.15-0.41-5,3.57
		C125.15,34.01,125.01,38.67,125.01,43.32z"/>
</g>
</svg>
