<?xml version="1.0" encoding="utf-8"?>
<!-- Generator: Adobe Illustrator 24.1.0, SVG Export Plug-In . SVG Version: 6.00 Build 0)  -->
<svg version="1.1" id="圖層_1" xmlns="http://www.w3.org/2000/svg" xmlns:xlink="http://www.w3.org/1999/xlink" x="0px" y="0px"
	 viewBox="0 0 131.81 132" style="enable-background:new 0 0 131.81 132;" xml:space="preserve">
<path d="M72.22,0c6.67,1.86,13.64,3.01,19.95,5.71c27.81,11.89,43.2,40.12,38.93,70.48c-4,28.42-27.23,50.98-56.6,54.99
	c-0.78,0.11-1.52,0.54-2.28,0.82c-4.33,0-8.67,0-13,0c-0.75-0.29-1.47-0.73-2.24-0.83c-30.43-4.12-54.85-29.33-56.8-58.69
	C-2.05,39.07,17.09,11.23,48.22,2.63c3.63-1,7.33-1.76,11-2.63C63.56,0,67.89,0,72.22,0z M102.94,70.97
	c-1.95-0.24-3.86-0.6-5.79-0.7c-7.31-0.38-14.62-0.73-21.94-0.96c-2.99-0.1-4.2-0.93-3.36-4.25c0.88-3.45,1.06-7.08,1.5-10.23
	c-0.71-0.58-0.83-0.76-0.96-0.77c-13.27-0.91-26.53-1.85-39.81-2.61c-0.95-0.05-2.59,1.1-2.84,1.99c-0.64,2.28-0.67,4.73-0.98,7.38
	c7.92,0.62,15.19,1.12,22.45,1.77c10.65,0.96,10.86,1.05,8.67,11.44c-0.88,4.18,0.62,4.85,4.19,4.95
	c9.81,0.26,19.63,0.63,29.42,1.24c8.56,0.54,7.19,1.87,9.42-7.3C103.04,72.48,102.94,71.97,102.94,70.97z"/>
</svg>
